<svg width="336" height="100" viewBox="0 0 336 100" fill="none" xmlns="http://www.w3.org/2000/svg">
<g clip-path="url(#clip0_214_296)">
<rect width="336" height="100" fill="#111111"/>
<path fill-rule="evenodd" clip-rule="evenodd" d="M392.671 -17.4961L342.443 -30.9547L328.984 19.2735L379.212 32.732L392.671 -17.4961ZM325.102 33.7623L375.33 47.2209L361.871 97.4491L311.643 83.9905L325.102 33.7623ZM195.668 -0.919406L245.896 12.5392L232.437 62.7673L182.209 49.3087L195.668 -0.919406ZM130.951 -18.2603L181.179 -4.80169L167.72 45.4265L117.492 31.9679L130.951 -18.2603ZM116.462 -22.1426L66.2335 -35.6012L52.7749 14.627L103.003 28.0856L116.462 -22.1426ZM1.51649 -52.942L51.7446 -39.4834L38.286 10.7447L-11.9421 -2.71389L1.51649 -52.942ZM-12.9724 -56.8243L-63.2005 -70.2829L-76.6591 -20.0548L-26.431 -6.59618L-12.9724 -56.8243ZM307.761 98.4794L357.989 111.938L344.53 162.166L294.302 148.708L307.761 98.4794ZM263.237 -52.1778L213.008 -65.6364L199.55 -15.4083L249.778 -1.9497L263.237 -52.1778ZM148.291 -82.9773L198.52 -69.5187L185.061 -19.2906L134.833 -32.7492L148.291 -82.9773ZM133.803 -86.8596L83.5744 -100.318L70.1158 -50.09L120.344 -36.6315L133.803 -86.8596ZM18.8574 -117.659L69.0855 -104.2L55.6269 -53.9723L5.39877 -67.4309L18.8574 -117.659ZM4.36848 -121.541L-45.8597 -135L-59.3183 -84.7718L-9.09011 -71.3132L4.36848 -121.541ZM178.327 63.7976L228.555 77.2562L215.096 127.484L164.868 114.026L178.327 63.7976ZM163.838 59.9153L113.61 46.4567L100.151 96.6849L150.379 110.143L163.838 59.9153ZM48.8926 29.1159L99.1208 42.5745L85.6622 92.8026L35.4341 79.344L48.8926 29.1159ZM34.4038 25.2336L-15.8244 11.775L-29.283 62.0031L20.9452 75.4617L34.4038 25.2336ZM-80.5414 -5.56588L-30.3133 7.89271L-43.7719 58.1209L-94 44.6623L-80.5414 -5.56588ZM327.954 -34.837L277.725 -48.2956L264.267 1.93258L314.495 15.3912L327.954 -34.837ZM243.044 81.1385L293.272 94.5971L279.813 144.825L229.585 131.367L243.044 81.1385Z" fill="url(#paint0_radial_214_296)"/>
<path fill-rule="evenodd" clip-rule="evenodd" d="M260.384 16.4213L310.612 29.8799L297.153 80.108L246.925 66.6494L260.384 16.4213ZM274.113 40.2015L286.832 43.6094L283.424 56.3279L270.705 52.92L274.113 40.2015Z" fill="white"/>
<path d="M26.6819 35.08C26.6819 34.1267 26.8506 33.1953 27.1879 32.286C27.5399 31.362 28.0459 30.526 28.7059 29.778C29.3659 29.0153 30.1726 28.414 31.1259 27.974C32.0792 27.5193 33.1646 27.292 34.3819 27.292C35.8192 27.292 37.0586 27.6073 38.0999 28.238C39.1559 28.8687 39.9406 29.69 40.4539 30.702L38.1219 32.308C37.8579 31.7213 37.5132 31.2593 37.0879 30.922C36.6626 30.57 36.2079 30.328 35.7239 30.196C35.2399 30.0493 34.7632 29.976 34.2939 29.976C33.5312 29.976 32.8639 30.13 32.2919 30.438C31.7346 30.746 31.2652 31.1493 30.8839 31.648C30.5026 32.1467 30.2166 32.704 30.0259 33.32C29.8499 33.936 29.7619 34.552 29.7619 35.168C29.7619 35.8573 29.8719 36.5247 30.0919 37.17C30.3119 37.8007 30.6199 38.3653 31.0159 38.864C31.4266 39.348 31.9106 39.7367 32.4679 40.03C33.0399 40.3087 33.6632 40.448 34.3379 40.448C34.8219 40.448 35.3132 40.3673 35.8119 40.206C36.3106 40.0447 36.7726 39.788 37.1979 39.436C37.6232 39.084 37.9532 38.6293 38.1879 38.072L40.6739 39.502C40.3659 40.2793 39.8599 40.9393 39.1559 41.482C38.4666 42.0247 37.6892 42.4353 36.8239 42.714C35.9586 42.9927 35.1006 43.132 34.2499 43.132C33.1352 43.132 32.1159 42.9047 31.1919 42.45C30.2679 41.9807 29.4686 41.3647 28.7939 40.602C28.1339 39.8247 27.6132 38.9593 27.2319 38.006C26.8652 37.038 26.6819 36.0627 26.6819 35.08Z" fill="white"/>
<path d="M47.7049 43.22C46.7663 43.22 45.9229 43.066 45.1749 42.758C44.4269 42.4353 43.7889 41.9953 43.2609 41.438C42.7476 40.8807 42.3516 40.2427 42.0729 39.524C41.7943 38.8053 41.6549 38.05 41.6549 37.258C41.6549 36.4513 41.7943 35.6887 42.0729 34.97C42.3516 34.2513 42.7476 33.6133 43.2609 33.056C43.7889 32.4987 44.4269 32.066 45.1749 31.758C45.9229 31.4353 46.7663 31.274 47.7049 31.274C48.6436 31.274 49.4796 31.4353 50.2129 31.758C50.9609 32.066 51.5989 32.4987 52.1269 33.056C52.6549 33.6133 53.0509 34.2513 53.3149 34.97C53.5936 35.6887 53.7329 36.4513 53.7329 37.258C53.7329 38.05 53.5936 38.8053 53.3149 39.524C53.0509 40.2427 52.6549 40.8807 52.1269 41.438C51.6136 41.9953 50.9829 42.4353 50.2349 42.758C49.4869 43.066 48.6436 43.22 47.7049 43.22ZM44.6909 37.258C44.6909 37.9327 44.8229 38.534 45.0869 39.062C45.3509 39.5753 45.7103 39.9787 46.1649 40.272C46.6196 40.5653 47.1329 40.712 47.7049 40.712C48.2623 40.712 48.7683 40.5653 49.2229 40.272C49.6776 39.964 50.0369 39.5533 50.3009 39.04C50.5796 38.512 50.7189 37.9107 50.7189 37.236C50.7189 36.576 50.5796 35.982 50.3009 35.454C50.0369 34.926 49.6776 34.5153 49.2229 34.222C48.7683 33.9287 48.2623 33.782 47.7049 33.782C47.1329 33.782 46.6196 33.936 46.1649 34.244C45.7103 34.5373 45.3509 34.948 45.0869 35.476C44.8229 35.9893 44.6909 36.5833 44.6909 37.258Z" fill="white"/>
<path d="M66.4367 43H63.4887V36.532C63.4887 35.608 63.3274 34.9333 63.0047 34.508C62.6821 34.0827 62.2347 33.87 61.6627 33.87C61.2667 33.87 60.8634 33.9727 60.4527 34.178C60.0567 34.3833 59.6974 34.6693 59.3747 35.036C59.0521 35.388 58.8174 35.7987 58.6707 36.268V43H55.7227V31.472H58.3847V33.606C58.6781 33.1073 59.0521 32.6893 59.5067 32.352C59.9614 32 60.4821 31.736 61.0687 31.56C61.6701 31.3693 62.3007 31.274 62.9607 31.274C63.6794 31.274 64.2661 31.406 64.7207 31.67C65.1901 31.9193 65.5421 32.264 65.7767 32.704C66.0261 33.1293 66.1947 33.6133 66.2827 34.156C66.3854 34.6987 66.4367 35.2487 66.4367 35.806V43Z" fill="white"/>
<path d="M79.7141 43H76.7661V36.532C76.7661 35.608 76.6048 34.9333 76.2821 34.508C75.9594 34.0827 75.5121 33.87 74.9401 33.87C74.5441 33.87 74.1408 33.9727 73.7301 34.178C73.3341 34.3833 72.9748 34.6693 72.6521 35.036C72.3294 35.388 72.0948 35.7987 71.9481 36.268V43H69.0001V31.472H71.6621V33.606C71.9554 33.1073 72.3294 32.6893 72.7841 32.352C73.2388 32 73.7594 31.736 74.3461 31.56C74.9474 31.3693 75.5781 31.274 76.2381 31.274C76.9568 31.274 77.5434 31.406 77.9981 31.67C78.4674 31.9193 78.8194 32.264 79.0541 32.704C79.3034 33.1293 79.4721 33.6133 79.5601 34.156C79.6628 34.6987 79.7141 35.2487 79.7141 35.806V43Z" fill="white"/>
<path d="M87.6234 43.22C86.6994 43.22 85.8634 43.066 85.1154 42.758C84.3674 42.4353 83.7294 42.0027 83.2014 41.46C82.6734 40.9027 82.2628 40.272 81.9694 39.568C81.6908 38.8493 81.5514 38.094 81.5514 37.302C81.5514 36.202 81.7934 35.1973 82.2774 34.288C82.7761 33.3787 83.4801 32.6527 84.3894 32.11C85.3134 31.5527 86.3988 31.274 87.6454 31.274C88.9068 31.274 89.9848 31.5527 90.8794 32.11C91.7741 32.6527 92.4561 33.3787 92.9254 34.288C93.4094 35.1827 93.6514 36.1507 93.6514 37.192C93.6514 37.368 93.6441 37.5513 93.6294 37.742C93.6148 37.918 93.6001 38.0647 93.5854 38.182H84.6754C84.7341 38.7687 84.9028 39.282 85.1814 39.722C85.4748 40.162 85.8414 40.4993 86.2814 40.734C86.7361 40.954 87.2201 41.064 87.7334 41.064C88.3201 41.064 88.8701 40.9247 89.3834 40.646C89.9114 40.3527 90.2708 39.9713 90.4614 39.502L92.9914 40.206C92.7128 40.7927 92.3094 41.3133 91.7814 41.768C91.2681 42.2227 90.6594 42.582 89.9554 42.846C89.2514 43.0953 88.4741 43.22 87.6234 43.22ZM84.6094 36.312H90.6374C90.5788 35.7253 90.4101 35.2193 90.1314 34.794C89.8674 34.354 89.5154 34.0167 89.0754 33.782C88.6354 33.5327 88.1441 33.408 87.6014 33.408C87.0734 33.408 86.5894 33.5327 86.1494 33.782C85.7241 34.0167 85.3721 34.354 85.0934 34.794C84.8294 35.2193 84.6681 35.7253 84.6094 36.312Z" fill="white"/>
<path d="M100.815 43.22C99.8767 43.22 99.0334 43.066 98.2854 42.758C97.5374 42.4353 96.8994 41.9953 96.3714 41.438C95.8434 40.866 95.4327 40.2207 95.1394 39.502C94.8607 38.7833 94.7214 38.028 94.7214 37.236C94.7214 36.1507 94.9634 35.1607 95.4474 34.266C95.946 33.3567 96.65 32.6307 97.5594 32.088C98.4687 31.5453 99.5467 31.274 100.793 31.274C102.04 31.274 103.111 31.5453 104.005 32.088C104.9 32.6307 105.567 33.342 106.007 34.222L103.125 35.102C102.876 34.6767 102.546 34.354 102.135 34.134C101.725 33.8993 101.27 33.782 100.771 33.782C100.214 33.782 99.7007 33.9287 99.2314 34.222C98.7767 34.5007 98.4174 34.904 98.1534 35.432C97.8894 35.9453 97.7574 36.5467 97.7574 37.236C97.7574 37.9107 97.8894 38.512 98.1534 39.04C98.432 39.5533 98.7987 39.964 99.2534 40.272C99.708 40.5653 100.214 40.712 100.771 40.712C101.123 40.712 101.453 40.6533 101.761 40.536C102.084 40.4187 102.37 40.2573 102.619 40.052C102.869 39.8467 103.052 39.612 103.169 39.348L106.051 40.228C105.787 40.8 105.399 41.3133 104.885 41.768C104.387 42.2227 103.793 42.582 103.103 42.846C102.429 43.0953 101.666 43.22 100.815 43.22Z" fill="white"/>
<path d="M114.773 42.406C114.524 42.5087 114.223 42.626 113.871 42.758C113.519 42.89 113.138 42.9927 112.727 43.066C112.331 43.154 111.928 43.198 111.517 43.198C110.975 43.198 110.476 43.1027 110.021 42.912C109.567 42.7213 109.2 42.4207 108.921 42.01C108.657 41.5847 108.525 41.0347 108.525 40.36V33.738H107.007V31.472H108.525V27.732H111.473V31.472H113.893V33.738H111.473V39.37C111.488 39.766 111.598 40.052 111.803 40.228C112.009 40.404 112.265 40.492 112.573 40.492C112.881 40.492 113.182 40.4407 113.475 40.338C113.769 40.2353 114.003 40.1473 114.179 40.074L114.773 42.406Z" fill="white"/>
<path d="M122.823 27.38L126.673 34.728L130.589 27.38H133.867L128.191 37.544V43H125.177V37.5L119.523 27.38H122.823Z" fill="white"/>
<path d="M138.605 43.22C137.667 43.22 136.823 43.066 136.075 42.758C135.327 42.4353 134.689 41.9953 134.161 41.438C133.648 40.8807 133.252 40.2427 132.973 39.524C132.695 38.8053 132.555 38.05 132.555 37.258C132.555 36.4513 132.695 35.6887 132.973 34.97C133.252 34.2513 133.648 33.6133 134.161 33.056C134.689 32.4987 135.327 32.066 136.075 31.758C136.823 31.4353 137.667 31.274 138.605 31.274C139.544 31.274 140.38 31.4353 141.113 31.758C141.861 32.066 142.499 32.4987 143.027 33.056C143.555 33.6133 143.951 34.2513 144.215 34.97C144.494 35.6887 144.633 36.4513 144.633 37.258C144.633 38.05 144.494 38.8053 144.215 39.524C143.951 40.2427 143.555 40.8807 143.027 41.438C142.514 41.9953 141.883 42.4353 141.135 42.758C140.387 43.066 139.544 43.22 138.605 43.22ZM135.591 37.258C135.591 37.9327 135.723 38.534 135.987 39.062C136.251 39.5753 136.611 39.9787 137.065 40.272C137.52 40.5653 138.033 40.712 138.605 40.712C139.163 40.712 139.669 40.5653 140.123 40.272C140.578 39.964 140.937 39.5533 141.201 39.04C141.48 38.512 141.619 37.9107 141.619 37.236C141.619 36.576 141.48 35.982 141.201 35.454C140.937 34.926 140.578 34.5153 140.123 34.222C139.669 33.9287 139.163 33.782 138.605 33.782C138.033 33.782 137.52 33.936 137.065 34.244C136.611 34.5373 136.251 34.948 135.987 35.476C135.723 35.9893 135.591 36.5833 135.591 37.258Z" fill="white"/>
<path d="M146.513 38.688V31.472H149.461V38.05C149.461 38.93 149.622 39.5973 149.945 40.052C150.268 40.492 150.744 40.712 151.375 40.712C151.756 40.712 152.13 40.6387 152.497 40.492C152.878 40.3307 153.223 40.096 153.531 39.788C153.854 39.48 154.125 39.0913 154.345 38.622V31.472H157.293V39.7C157.293 40.008 157.344 40.228 157.447 40.36C157.564 40.492 157.748 40.5727 157.997 40.602V43C157.704 43.044 157.454 43.0733 157.249 43.088C157.058 43.1173 156.882 43.132 156.721 43.132C156.193 43.132 155.76 43.0147 155.423 42.78C155.1 42.5307 154.91 42.1933 154.851 41.768L154.785 40.844C154.272 41.6213 153.612 42.2153 152.805 42.626C151.998 43.022 151.111 43.22 150.143 43.22C148.955 43.22 148.053 42.8387 147.437 42.076C146.821 41.2987 146.513 40.1693 146.513 38.688Z" fill="white"/>
<path d="M167.087 34.024C166.192 34.024 165.393 34.2 164.689 34.552C163.985 34.8893 163.479 35.3807 163.171 36.026V43H160.223V31.472H162.929V33.936C163.339 33.144 163.86 32.5207 164.491 32.066C165.121 31.6113 165.789 31.362 166.493 31.318C166.654 31.318 166.779 31.318 166.867 31.318C166.955 31.318 167.028 31.3253 167.087 31.34V34.024Z" fill="white"/>
<path d="M27.6279 69V53.38H34.5359C35.2546 53.38 35.9146 53.5267 36.5159 53.82C37.1319 54.1133 37.6599 54.5093 38.0999 55.008C38.5546 55.5067 38.8992 56.064 39.1339 56.68C39.3832 57.296 39.5079 57.9267 39.5079 58.572C39.5079 59.232 39.3906 59.87 39.1559 60.486C38.9359 61.0873 38.6132 61.6153 38.1879 62.07C37.7626 62.5247 37.2639 62.8767 36.6919 63.126L40.2559 69H36.9119L33.6999 63.764H30.6639V69H27.6279ZM30.6639 61.102H34.4699C34.8512 61.102 35.1886 60.992 35.4819 60.772C35.7752 60.5373 36.0099 60.2293 36.1859 59.848C36.3619 59.4667 36.4499 59.0413 36.4499 58.572C36.4499 58.0733 36.3472 57.6407 36.1419 57.274C35.9366 56.8927 35.6726 56.592 35.3499 56.372C35.0419 56.152 34.7046 56.042 34.3379 56.042H30.6639V61.102Z" fill="white"/>
<path d="M46.91 69.22C45.9714 69.22 45.128 69.066 44.38 68.758C43.632 68.4353 42.994 67.9953 42.466 67.438C41.9527 66.8807 41.5567 66.2427 41.278 65.524C40.9994 64.8053 40.86 64.05 40.86 63.258C40.86 62.4513 40.9994 61.6887 41.278 60.97C41.5567 60.2513 41.9527 59.6133 42.466 59.056C42.994 58.4987 43.632 58.066 44.38 57.758C45.128 57.4353 45.9714 57.274 46.91 57.274C47.8487 57.274 48.6847 57.4353 49.418 57.758C50.166 58.066 50.804 58.4987 51.332 59.056C51.86 59.6133 52.256 60.2513 52.52 60.97C52.7987 61.6887 52.938 62.4513 52.938 63.258C52.938 64.05 52.7987 64.8053 52.52 65.524C52.256 66.2427 51.86 66.8807 51.332 67.438C50.8187 67.9953 50.188 68.4353 49.44 68.758C48.692 69.066 47.8487 69.22 46.91 69.22ZM43.896 63.258C43.896 63.9327 44.028 64.534 44.292 65.062C44.556 65.5753 44.9154 65.9787 45.37 66.272C45.8247 66.5653 46.338 66.712 46.91 66.712C47.4674 66.712 47.9734 66.5653 48.428 66.272C48.8827 65.964 49.242 65.5533 49.506 65.04C49.7847 64.512 49.924 63.9107 49.924 63.236C49.924 62.576 49.7847 61.982 49.506 61.454C49.242 60.926 48.8827 60.5153 48.428 60.222C47.9734 59.9287 47.4674 59.782 46.91 59.782C46.338 59.782 45.8247 59.936 45.37 60.244C44.9154 60.5373 44.556 60.948 44.292 61.476C44.028 61.9893 43.896 62.5833 43.896 63.258Z" fill="white"/>
<path d="M61.4838 69.22C60.6038 69.22 59.8192 69.022 59.1298 68.626C58.4405 68.23 57.8978 67.6873 57.5018 66.998V69H54.9278V52.94H57.8758V59.496C58.2865 58.8067 58.8218 58.264 59.4818 57.868C60.1565 57.472 60.9412 57.274 61.8358 57.274C62.5838 57.274 63.2658 57.4353 63.8818 57.758C64.4978 58.066 65.0258 58.4987 65.4658 59.056C65.9205 59.6133 66.2652 60.2513 66.4998 60.97C66.7492 61.6887 66.8738 62.4587 66.8738 63.28C66.8738 64.1013 66.7345 64.8713 66.4558 65.59C66.1918 66.3087 65.8178 66.9467 65.3338 67.504C64.8498 68.0467 64.2778 68.472 63.6178 68.78C62.9725 69.0733 62.2612 69.22 61.4838 69.22ZM60.6698 66.712C61.1392 66.712 61.5645 66.624 61.9458 66.448C62.3418 66.2573 62.6792 66.008 62.9578 65.7C63.2512 65.392 63.4712 65.0327 63.6178 64.622C63.7792 64.1967 63.8598 63.7567 63.8598 63.302C63.8598 62.6713 63.7278 62.092 63.4638 61.564C63.2145 61.0213 62.8625 60.5887 62.4078 60.266C61.9678 59.9433 61.4472 59.782 60.8458 59.782C60.4205 59.782 60.0098 59.8847 59.6138 60.09C59.2325 60.2807 58.8878 60.5447 58.5798 60.882C58.2865 61.2193 58.0518 61.6007 57.8758 62.026V64.776C57.9638 65.0693 58.1032 65.3333 58.2938 65.568C58.4992 65.8027 58.7338 66.008 58.9978 66.184C59.2618 66.3453 59.5332 66.4773 59.8118 66.58C60.1052 66.668 60.3912 66.712 60.6698 66.712Z" fill="white"/>
<path d="M68.8492 52.94H71.7972V65.304C71.7972 65.832 71.8852 66.1913 72.0612 66.382C72.2372 66.558 72.4792 66.646 72.7872 66.646C73.0218 66.646 73.2639 66.6167 73.5132 66.558C73.7625 66.4993 73.9825 66.426 74.1732 66.338L74.5692 68.582C74.1732 68.7727 73.7112 68.9193 73.1832 69.022C72.6552 69.1247 72.1785 69.176 71.7532 69.176C70.8292 69.176 70.1105 68.934 69.5972 68.45C69.0985 67.9513 68.8492 67.2473 68.8492 66.338V52.94Z" fill="white"/>
<path d="M81.1776 69.22C80.2389 69.22 79.3956 69.066 78.6476 68.758C77.8996 68.4353 77.2616 67.9953 76.7336 67.438C76.2203 66.8807 75.8243 66.2427 75.5456 65.524C75.2669 64.8053 75.1276 64.05 75.1276 63.258C75.1276 62.4513 75.2669 61.6887 75.5456 60.97C75.8243 60.2513 76.2203 59.6133 76.7336 59.056C77.2616 58.4987 77.8996 58.066 78.6476 57.758C79.3956 57.4353 80.2389 57.274 81.1776 57.274C82.1163 57.274 82.9523 57.4353 83.6856 57.758C84.4336 58.066 85.0716 58.4987 85.5996 59.056C86.1276 59.6133 86.5236 60.2513 86.7876 60.97C87.0663 61.6887 87.2056 62.4513 87.2056 63.258C87.2056 64.05 87.0663 64.8053 86.7876 65.524C86.5236 66.2427 86.1276 66.8807 85.5996 67.438C85.0863 67.9953 84.4556 68.4353 83.7076 68.758C82.9596 69.066 82.1163 69.22 81.1776 69.22ZM78.1636 63.258C78.1636 63.9327 78.2956 64.534 78.5596 65.062C78.8236 65.5753 79.1829 65.9787 79.6376 66.272C80.0923 66.5653 80.6056 66.712 81.1776 66.712C81.7349 66.712 82.2409 66.5653 82.6956 66.272C83.1503 65.964 83.5096 65.5533 83.7736 65.04C84.0523 64.512 84.1916 63.9107 84.1916 63.236C84.1916 62.576 84.0523 61.982 83.7736 61.454C83.5096 60.926 83.1503 60.5153 82.6956 60.222C82.2409 59.9287 81.7349 59.782 81.1776 59.782C80.6056 59.782 80.0923 59.936 79.6376 60.244C79.1829 60.5373 78.8236 60.948 78.5596 61.476C78.2956 61.9893 78.1636 62.5833 78.1636 63.258Z" fill="white"/>
<path d="M90.5503 57.472L92.9703 61.08L93.1463 61.476L93.3663 61.08L95.7643 57.472H98.8663L94.8623 63.214L98.9323 69H95.8303L93.3443 65.414L93.1463 65.04L92.9703 65.414L90.5063 69H87.4043L91.4743 63.28L87.4703 57.472H90.5503Z" fill="white"/>
<path d="M109.475 53.38H112.555L118.297 69H115.173L113.721 65.106H108.265L106.835 69H103.711L109.475 53.38ZM113.171 62.972L111.015 56.526L108.771 62.972H113.171Z" fill="white"/>
<path d="M124.749 69.22C123.81 69.22 122.967 69.066 122.219 68.758C121.471 68.4353 120.833 67.9953 120.305 67.438C119.777 66.866 119.366 66.2207 119.073 65.502C118.794 64.7833 118.655 64.028 118.655 63.236C118.655 62.1507 118.897 61.1607 119.381 60.266C119.88 59.3567 120.584 58.6307 121.493 58.088C122.402 57.5453 123.48 57.274 124.727 57.274C125.974 57.274 127.044 57.5453 127.939 58.088C128.834 58.6307 129.501 59.342 129.941 60.222L127.059 61.102C126.81 60.6767 126.48 60.354 126.069 60.134C125.658 59.8993 125.204 59.782 124.705 59.782C124.148 59.782 123.634 59.9287 123.165 60.222C122.71 60.5007 122.351 60.904 122.087 61.432C121.823 61.9453 121.691 62.5467 121.691 63.236C121.691 63.9107 121.823 64.512 122.087 65.04C122.366 65.5533 122.732 65.964 123.187 66.272C123.642 66.5653 124.148 66.712 124.705 66.712C125.057 66.712 125.387 66.6533 125.695 66.536C126.018 66.4187 126.304 66.2573 126.553 66.052C126.802 65.8467 126.986 65.612 127.103 65.348L129.985 66.228C129.721 66.8 129.332 67.3133 128.819 67.768C128.32 68.2227 127.726 68.582 127.037 68.846C126.362 69.0953 125.6 69.22 124.749 69.22Z" fill="white"/>
<path d="M137.059 69.22C136.121 69.22 135.277 69.066 134.529 68.758C133.781 68.4353 133.143 67.9953 132.615 67.438C132.087 66.866 131.677 66.2207 131.383 65.502C131.105 64.7833 130.965 64.028 130.965 63.236C130.965 62.1507 131.207 61.1607 131.691 60.266C132.19 59.3567 132.894 58.6307 133.803 58.088C134.713 57.5453 135.791 57.274 137.037 57.274C138.284 57.274 139.355 57.5453 140.249 58.088C141.144 58.6307 141.811 59.342 142.251 60.222L139.369 61.102C139.12 60.6767 138.79 60.354 138.379 60.134C137.969 59.8993 137.514 59.782 137.015 59.782C136.458 59.782 135.945 59.9287 135.475 60.222C135.021 60.5007 134.661 60.904 134.397 61.432C134.133 61.9453 134.001 62.5467 134.001 63.236C134.001 63.9107 134.133 64.512 134.397 65.04C134.676 65.5533 135.043 65.964 135.497 66.272C135.952 66.5653 136.458 66.712 137.015 66.712C137.367 66.712 137.697 66.6533 138.005 66.536C138.328 66.4187 138.614 66.2573 138.863 66.052C139.113 65.8467 139.296 65.612 139.413 65.348L142.295 66.228C142.031 66.8 141.643 67.3133 141.129 67.768C140.631 68.2227 140.037 68.582 139.347 68.846C138.673 69.0953 137.91 69.22 137.059 69.22Z" fill="white"/>
<path d="M149.326 69.22C148.387 69.22 147.544 69.066 146.796 68.758C146.048 68.4353 145.41 67.9953 144.882 67.438C144.369 66.8807 143.973 66.2427 143.694 65.524C143.415 64.8053 143.276 64.05 143.276 63.258C143.276 62.4513 143.415 61.6887 143.694 60.97C143.973 60.2513 144.369 59.6133 144.882 59.056C145.41 58.4987 146.048 58.066 146.796 57.758C147.544 57.4353 148.387 57.274 149.326 57.274C150.265 57.274 151.101 57.4353 151.834 57.758C152.582 58.066 153.22 58.4987 153.748 59.056C154.276 59.6133 154.672 60.2513 154.936 60.97C155.215 61.6887 155.354 62.4513 155.354 63.258C155.354 64.05 155.215 64.8053 154.936 65.524C154.672 66.2427 154.276 66.8807 153.748 67.438C153.235 67.9953 152.604 68.4353 151.856 68.758C151.108 69.066 150.265 69.22 149.326 69.22ZM146.312 63.258C146.312 63.9327 146.444 64.534 146.708 65.062C146.972 65.5753 147.331 65.9787 147.786 66.272C148.241 66.5653 148.754 66.712 149.326 66.712C149.883 66.712 150.389 66.5653 150.844 66.272C151.299 65.964 151.658 65.5533 151.922 65.04C152.201 64.512 152.34 63.9107 152.34 63.236C152.34 62.576 152.201 61.982 151.922 61.454C151.658 60.926 151.299 60.5153 150.844 60.222C150.389 59.9287 149.883 59.782 149.326 59.782C148.754 59.782 148.241 59.936 147.786 60.244C147.331 60.5373 146.972 60.948 146.708 61.476C146.444 61.9893 146.312 62.5833 146.312 63.258Z" fill="white"/>
<path d="M157.234 64.688V57.472H160.182V64.05C160.182 64.93 160.343 65.5973 160.666 66.052C160.988 66.492 161.465 66.712 162.096 66.712C162.477 66.712 162.851 66.6387 163.218 66.492C163.599 66.3307 163.944 66.096 164.252 65.788C164.574 65.48 164.846 65.0913 165.066 64.622V57.472H168.014V65.7C168.014 66.008 168.065 66.228 168.168 66.36C168.285 66.492 168.469 66.5727 168.718 66.602V69C168.425 69.044 168.175 69.0733 167.97 69.088C167.779 69.1173 167.603 69.132 167.442 69.132C166.914 69.132 166.481 69.0147 166.144 68.78C165.821 68.5307 165.631 68.1933 165.572 67.768L165.506 66.844C164.993 67.6213 164.332 68.2153 163.526 68.626C162.719 69.022 161.832 69.22 160.864 69.22C159.676 69.22 158.774 68.8387 158.158 68.076C157.542 67.2987 157.234 66.1693 157.234 64.688Z" fill="white"/>
<path d="M181.657 69H178.709V62.532C178.709 61.608 178.548 60.9333 178.225 60.508C177.903 60.0827 177.455 59.87 176.883 59.87C176.487 59.87 176.084 59.9727 175.673 60.178C175.277 60.3833 174.918 60.6693 174.595 61.036C174.273 61.388 174.038 61.7987 173.891 62.268V69H170.943V57.472H173.605V59.606C173.899 59.1073 174.273 58.6893 174.727 58.352C175.182 58 175.703 57.736 176.289 57.56C176.891 57.3693 177.521 57.274 178.181 57.274C178.9 57.274 179.487 57.406 179.941 57.67C180.411 57.9193 180.763 58.264 180.997 58.704C181.247 59.1293 181.415 59.6133 181.503 60.156C181.606 60.6987 181.657 61.2487 181.657 61.806V69Z" fill="white"/>
<path d="M191.064 68.406C190.815 68.5087 190.514 68.626 190.162 68.758C189.81 68.89 189.429 68.9927 189.018 69.066C188.622 69.154 188.219 69.198 187.808 69.198C187.266 69.198 186.767 69.1027 186.312 68.912C185.858 68.7213 185.491 68.4207 185.212 68.01C184.948 67.5847 184.816 67.0347 184.816 66.36V59.738H183.298V57.472H184.816V53.732H187.764V57.472H190.184V59.738H187.764V65.37C187.779 65.766 187.889 66.052 188.094 66.228C188.3 66.404 188.556 66.492 188.864 66.492C189.172 66.492 189.473 66.4407 189.766 66.338C190.06 66.2353 190.294 66.1473 190.47 66.074L191.064 68.406Z" fill="white"/>
</g>
<defs>
<radialGradient id="paint0_radial_214_296" cx="0" cy="0" r="1" gradientUnits="userSpaceOnUse" gradientTransform="translate(279.252 48.3943) rotate(-165) scale(361.5 882.371)">
<stop stop-color="white" stop-opacity="0.04"/>
<stop offset="1" stop-color="white" stop-opacity="0"/>
</radialGradient>
<clipPath id="clip0_214_296">
<rect width="336" height="100" fill="white"/>
</clipPath>
</defs>
</svg>
