<svg width="336" height="100" viewBox="0 0 336 100" fill="none" xmlns="http://www.w3.org/2000/svg">
<g clip-path="url(#clip0_214_48)">
<rect width="336" height="100" fill="#111111"/>
<path d="M298.555 50.4024L265.406 69.0758L265.004 31.0317L298.555 50.4024Z" fill="url(#paint0_radial_214_48)" stroke="white" stroke-width="12"/>
<path fill-rule="evenodd" clip-rule="evenodd" d="M259.43 4.4325C259.468 7.94154 263.336 10.1749 266.393 8.45254L303.786 -12.6119C306.844 -14.3343 306.798 -18.7206 303.703 -20.5073L265.856 -42.3584C262.761 -44.1451 258.939 -41.9922 258.976 -38.4831L259.43 4.4325ZM140.454 4.43259C140.492 7.94164 144.36 10.175 147.417 8.45264L184.81 -12.6119C187.868 -14.3342 187.822 -18.7205 184.727 -20.5072L146.88 -42.3583C143.785 -44.145 139.963 -41.9921 140 -38.483L140.454 4.43259ZM306.165 42.4062C309.223 44.1285 313.091 41.8952 313.128 38.3861L313.582 -4.52951C313.619 -8.03856 309.797 -10.1915 306.703 -8.40482L268.856 13.4463C265.761 15.233 265.715 19.6193 268.772 21.3417L306.165 42.4062ZM187.189 42.4062C190.247 44.1286 194.115 41.8952 194.152 38.3862L194.606 -4.52942C194.643 -8.03846 190.821 -10.1914 187.727 -8.40473L149.88 13.4464C146.785 15.2331 146.739 19.6194 149.796 21.3418L187.189 42.4062ZM207.393 42.4525C204.336 44.1749 200.468 41.9416 200.43 38.4325L199.976 -4.48312C199.939 -7.99216 203.761 -10.1451 206.856 -8.35844L244.703 13.4927C247.798 15.2794 247.844 19.6657 244.786 21.3881L207.393 42.4525ZM88.4174 42.4526C85.3599 44.175 81.4916 41.9416 81.4545 38.4326L81.0003 -4.48303C80.9631 -7.99207 84.785 -10.145 87.8796 -8.35835L125.727 13.4928C128.822 15.2795 128.868 19.6658 125.81 21.3881L88.4174 42.4526ZM207.393 108.406C204.336 110.129 200.468 107.895 200.43 104.386L199.976 61.4705C199.939 57.9615 203.761 55.8085 206.856 57.5952L244.703 79.4463C247.798 81.233 247.844 85.6193 244.786 87.3417L207.393 108.406ZM81.4545 104.386C81.4916 107.895 85.3599 110.129 88.4174 108.406L125.81 87.3418C128.868 85.6194 128.822 81.2331 125.727 79.4464L87.8796 57.5953C84.785 55.8086 80.9631 57.9615 81.0003 61.4706L81.4545 104.386ZM-37.5456 104.386C-37.5084 107.895 -33.6401 110.129 -30.5827 108.406L6.81046 87.3418C9.86795 85.6194 9.82153 81.2331 6.7269 79.4464L-31.1204 57.5953C-34.215 55.8086 -38.0369 57.9616 -37.9997 61.4706L-37.5456 104.386ZM319.406 104.386C319.444 107.895 323.312 110.129 326.369 108.406L363.762 87.3417C366.82 85.6193 366.773 81.233 363.679 79.4463L325.832 57.5952C322.737 55.8085 318.915 57.9615 318.952 61.4705L319.406 104.386ZM-37.5456 38.4326C-37.5084 41.9417 -33.6401 44.175 -30.5827 42.4527L6.81046 21.3882C9.86795 19.6658 9.82153 15.2795 6.7269 13.4928L-31.1204 -8.35831C-34.215 -10.145 -38.0369 -7.99203 -37.9997 -4.48299L-37.5456 38.4326ZM319.406 38.4325C319.444 41.9416 323.312 44.1749 326.369 42.4525L363.762 21.3881C366.82 19.6657 366.773 15.2794 363.679 13.4927L325.832 -8.35844C322.737 -10.1451 318.915 -7.99216 318.952 -4.48312L319.406 38.4325ZM187.189 108.406C190.247 110.129 194.115 107.895 194.152 104.386L194.606 61.4706C194.643 57.9615 190.821 55.8086 187.727 57.5953L149.88 79.4464C146.785 81.2331 146.739 85.6194 149.796 87.3418L187.189 108.406ZM75.1521 104.386C75.1149 107.895 71.2466 110.129 68.1891 108.406L30.796 87.3418C27.7386 85.6194 27.785 81.2331 30.8796 79.4464L68.7269 57.5953C71.8215 55.8086 75.6434 57.9616 75.6062 61.4706L75.1521 104.386ZM306.165 108.406C309.223 110.129 313.091 107.895 313.128 104.386L313.582 61.4705C313.619 57.9615 309.797 55.8085 306.703 57.5952L268.856 79.4463C265.761 81.233 265.715 85.6193 268.772 87.3417L306.165 108.406ZM432.104 104.386C432.067 107.895 428.199 110.129 425.141 108.406L387.748 87.3417C384.69 85.6193 384.737 81.233 387.832 79.4463L425.679 57.5952C428.773 55.8085 432.595 57.9615 432.558 61.4705L432.104 104.386ZM75.1521 38.3862C75.1149 41.8953 71.2466 44.1286 68.1891 42.4063L30.796 21.3418C27.7386 19.6194 27.785 15.2331 30.8796 13.4464L68.7269 -8.40469C71.8215 -10.1914 75.6434 -8.03843 75.6062 -4.52938L75.1521 38.3862ZM432.104 38.3861C432.067 41.8952 428.199 44.1285 425.141 42.4062L387.748 21.3417C384.69 19.6193 384.737 15.233 387.832 13.4463L425.679 -8.40482C428.773 -10.1915 432.595 -8.03856 432.558 -4.52951L432.104 38.3861ZM147.417 75.4062C144.36 77.1286 140.492 74.8953 140.454 71.3862L140 28.4706C139.963 24.9615 143.785 22.8086 146.88 24.5953L184.727 46.4464C187.822 48.2331 187.868 52.6194 184.81 54.3418L147.417 75.4062ZM21.4544 71.3862C21.4916 74.8953 25.3599 77.1287 28.4173 75.4063L65.8104 54.3418C68.8679 52.6194 68.8215 48.2331 65.7269 46.4464L27.8796 24.5953C24.785 22.8086 20.9631 24.9616 21.0003 28.4706L21.4544 71.3862ZM385.369 75.4062C382.312 77.1285 378.444 74.8952 378.406 71.3861L377.952 28.4705C377.915 24.9614 381.737 22.8085 384.832 24.5952L422.679 46.4463C425.773 48.233 425.82 52.6193 422.762 54.3417L385.369 75.4062ZM28.4173 8.45267C25.3599 10.175 21.4916 7.94168 21.4544 4.43263L21.0003 -38.483C20.9631 -41.992 24.785 -44.145 27.8796 -42.3583L65.7269 -20.5072C68.8215 -18.7205 68.8679 -14.3342 65.8104 -12.6118L28.4173 8.45267ZM385.369 8.45254C382.312 10.1749 378.444 7.94154 378.406 4.4325L377.952 -38.4831C377.915 -41.9922 381.737 -44.1451 384.832 -42.3584L422.679 -20.5073C425.773 -18.7206 425.82 -14.3343 422.762 -12.6119L385.369 8.45254ZM140.454 138.433C140.492 141.942 144.36 144.175 147.417 142.453L184.81 121.388C187.868 119.666 187.822 115.279 184.727 113.493L146.88 91.6417C143.785 89.855 139.963 92.0079 140 95.517L140.454 138.433ZM28.4173 142.453C25.3599 144.175 21.4916 141.942 21.4544 138.433L21.0003 95.517C20.9631 92.008 24.785 89.855 27.8796 91.6417L65.7269 113.493C68.8215 115.28 68.8679 119.666 65.8104 121.388L28.4173 142.453ZM259.43 138.433C259.468 141.942 263.336 144.175 266.393 142.453L303.786 121.388C306.844 119.666 306.798 115.279 303.703 113.493L265.856 91.6416C262.761 89.8549 258.939 92.0078 258.976 95.5169L259.43 138.433ZM385.369 142.453C382.312 144.175 378.444 141.942 378.406 138.433L377.952 95.5169C377.915 92.0078 381.737 89.8549 384.832 91.6416L422.679 113.493C425.773 115.279 425.82 119.666 422.762 121.388L385.369 142.453ZM92.1921 53.9442C89.2374 52.1912 89.2374 47.8087 92.1921 46.0558L128.328 24.6169C131.283 22.864 134.976 25.0552 134.976 28.5611V71.4388C134.976 74.9447 131.283 77.136 128.328 75.383L92.1921 53.9442ZM-26.8079 46.0558C-29.7626 47.8088 -29.7626 52.1912 -26.8079 53.9442L9.32802 75.383C12.2827 77.136 15.9761 74.9448 15.9761 71.4388L15.9761 28.5611C15.9761 25.0552 12.2827 22.864 9.32801 24.617L-26.8079 46.0558ZM211.168 53.9441C208.213 52.1911 208.213 47.8087 211.168 46.0557L247.304 24.6168C250.259 22.8639 253.952 25.0551 253.952 28.561V71.4387C253.952 74.9447 250.259 77.1359 247.304 75.3829L211.168 53.9441ZM330.144 46.0557C327.189 47.8087 327.189 52.1911 330.144 53.9441L366.28 75.3829C369.235 77.1359 372.928 74.9447 372.928 71.4387V28.561C372.928 25.0551 369.235 22.8639 366.28 24.6168L330.144 46.0557ZM92.1921 -13.0095C89.2374 -14.7624 89.2374 -19.1449 92.1921 -20.8978L128.328 -42.3367C131.283 -44.0897 134.976 -41.8984 134.976 -38.3925V4.4852C134.976 7.99114 131.283 10.1824 128.328 8.42939L92.1921 -13.0095ZM-26.8079 -20.8978C-29.7626 -19.1448 -29.7626 -14.7624 -26.8079 -13.0094L9.32802 8.42942C12.2827 10.1824 15.9761 7.99118 15.9761 4.48523L15.9761 -38.3925C15.9761 -41.8984 12.2827 -44.0896 9.32801 -42.3366L-26.8079 -20.8978ZM211.168 -13.0096C208.213 -14.7625 208.213 -19.145 211.168 -20.8979L247.304 -42.3368C250.259 -44.0898 253.952 -41.8985 253.952 -38.3926V4.4851C253.952 7.99104 250.259 10.1823 247.304 8.42929L211.168 -13.0096ZM330.144 -20.8979C327.189 -19.145 327.189 -14.7625 330.144 -13.0096L366.28 8.42929C369.235 10.1823 372.928 7.99104 372.928 4.4851V-38.3926C372.928 -41.8985 369.235 -44.0898 366.28 -42.3368L330.144 -20.8979ZM92.1921 120.991C89.2374 119.238 89.2374 114.855 92.1921 113.102L128.328 91.6633C131.283 89.9103 134.976 92.1016 134.976 95.6075V138.485C134.976 141.991 131.283 144.182 128.328 142.429L92.1921 120.991ZM-26.8079 113.102C-29.7626 114.855 -29.7626 119.238 -26.8079 120.991L9.32802 142.429C12.2827 144.182 15.9761 141.991 15.9761 138.485L15.9761 95.6075C15.9761 92.1016 12.2827 89.9104 9.32801 91.6633L-26.8079 113.102ZM211.168 120.99C208.213 119.237 208.213 114.855 211.168 113.102L247.304 91.6632C250.259 89.9102 253.952 92.1015 253.952 95.6074V138.485C253.952 141.991 250.259 144.182 247.304 142.429L211.168 120.99ZM330.144 113.102C327.189 114.855 327.189 119.237 330.144 120.99L366.28 142.429C369.235 144.182 372.928 141.991 372.928 138.485V95.6074C372.928 92.1015 369.235 89.9102 366.28 91.6632L330.144 113.102Z" fill="url(#paint1_radial_214_48)"/>
<path d="M29.2339 27.38L33.4579 39.392L37.6379 27.38H40.8279L34.9099 43H31.9839L26.0439 27.38H29.2339Z" fill="white"/>
<path d="M46.0297 43.22C45.1057 43.22 44.2697 43.066 43.5217 42.758C42.7737 42.4353 42.1357 42.0026 41.6077 41.46C41.0797 40.9026 40.6691 40.272 40.3757 39.568C40.0971 38.8493 39.9577 38.094 39.9577 37.302C39.9577 36.202 40.1997 35.1973 40.6837 34.288C41.1824 33.3786 41.8864 32.6526 42.7957 32.11C43.7197 31.5526 44.8051 31.274 46.0517 31.274C47.3131 31.274 48.3911 31.5526 49.2857 32.11C50.1804 32.6526 50.8624 33.3786 51.3317 34.288C51.8157 35.1826 52.0577 36.1506 52.0577 37.192C52.0577 37.368 52.0504 37.5513 52.0357 37.742C52.0211 37.918 52.0064 38.0646 51.9917 38.182H43.0817C43.1404 38.7686 43.3091 39.282 43.5877 39.722C43.8811 40.162 44.2477 40.4993 44.6877 40.734C45.1424 40.954 45.6264 41.064 46.1397 41.064C46.7264 41.064 47.2764 40.9246 47.7897 40.646C48.3177 40.3526 48.6771 39.9713 48.8677 39.502L51.3977 40.206C51.1191 40.7926 50.7157 41.3133 50.1877 41.768C49.6744 42.2226 49.0657 42.582 48.3617 42.846C47.6577 43.0953 46.8804 43.22 46.0297 43.22ZM43.0157 36.312H49.0437C48.9851 35.7253 48.8164 35.2193 48.5377 34.794C48.2737 34.354 47.9217 34.0166 47.4817 33.782C47.0417 33.5326 46.5504 33.408 46.0077 33.408C45.4797 33.408 44.9957 33.5326 44.5557 33.782C44.1304 34.0166 43.7784 34.354 43.4997 34.794C43.2357 35.2193 43.0744 35.7253 43.0157 36.312Z" fill="white"/>
<path d="M60.7177 34.024C59.823 34.024 59.0237 34.2 58.3197 34.552C57.6157 34.8893 57.1097 35.3806 56.8017 36.026V43H53.8537V31.472H56.5597V33.936C56.9703 33.144 57.491 32.5206 58.1217 32.066C58.7523 31.6113 59.4197 31.362 60.1237 31.318C60.285 31.318 60.4097 31.318 60.4977 31.318C60.5857 31.318 60.659 31.3253 60.7177 31.34V34.024Z" fill="white"/>
<path d="M62.3615 43V31.472H65.3095V43H62.3615ZM62.3615 29.866V26.94H65.3095V29.866H62.3615Z" fill="white"/>
<path d="M68.6729 43V34.332H67.1549V32.088H68.6729V31.384C68.6729 30.4306 68.8269 29.6093 69.1349 28.92C69.4576 28.216 69.9049 27.6733 70.4769 27.292C71.0636 26.9106 71.7456 26.72 72.5229 26.72C72.9922 26.72 73.4616 26.7786 73.9309 26.896C74.4149 27.0133 74.8916 27.182 75.3609 27.402L74.7669 29.624C74.5469 29.5066 74.2902 29.4113 73.9969 29.338C73.7036 29.25 73.4249 29.206 73.1609 29.206C72.6622 29.206 72.2809 29.382 72.0169 29.734C71.7529 30.086 71.6209 30.5993 71.6209 31.274V32.088H74.4369V34.332H71.6209V43H68.6729Z" fill="white"/>
<path d="M76.3535 45.244C76.6175 45.3026 76.8595 45.354 77.0795 45.398C77.3141 45.442 77.5121 45.464 77.6735 45.464C77.9521 45.464 78.1795 45.3906 78.3555 45.244C78.5461 45.112 78.7295 44.8626 78.9055 44.496C79.0815 44.144 79.2648 43.6453 79.4555 43L74.9015 31.472H77.9595L81.0615 39.986L83.7895 31.472H86.6055L81.7655 45.288C81.5895 45.8013 81.3181 46.2633 80.9515 46.674C80.5995 47.0993 80.1521 47.4293 79.6095 47.664C79.0815 47.9133 78.4875 48.038 77.8275 48.038C77.5928 48.038 77.3581 48.016 77.1235 47.972C76.8888 47.9426 76.6321 47.884 76.3535 47.796V45.244Z" fill="white"/>
<path d="M94.1633 27.38L98.0133 34.728L101.929 27.38H105.207L99.5313 37.544V43H96.5173V37.5L90.8633 27.38H94.1633Z" fill="white"/>
<path d="M109.945 43.22C109.007 43.22 108.163 43.066 107.415 42.758C106.667 42.4353 106.029 41.9953 105.501 41.438C104.988 40.8806 104.592 40.2426 104.313 39.524C104.035 38.8053 103.895 38.05 103.895 37.258C103.895 36.4513 104.035 35.6886 104.313 34.97C104.592 34.2513 104.988 33.6133 105.501 33.056C106.029 32.4986 106.667 32.066 107.415 31.758C108.163 31.4353 109.007 31.274 109.945 31.274C110.884 31.274 111.72 31.4353 112.453 31.758C113.201 32.066 113.839 32.4986 114.367 33.056C114.895 33.6133 115.291 34.2513 115.555 34.97C115.834 35.6886 115.973 36.4513 115.973 37.258C115.973 38.05 115.834 38.8053 115.555 39.524C115.291 40.2426 114.895 40.8806 114.367 41.438C113.854 41.9953 113.223 42.4353 112.475 42.758C111.727 43.066 110.884 43.22 109.945 43.22ZM106.931 37.258C106.931 37.9326 107.063 38.534 107.327 39.062C107.591 39.5753 107.951 39.9786 108.405 40.272C108.86 40.5653 109.373 40.712 109.945 40.712C110.503 40.712 111.009 40.5653 111.463 40.272C111.918 39.964 112.277 39.5533 112.541 39.04C112.82 38.512 112.959 37.9106 112.959 37.236C112.959 36.576 112.82 35.982 112.541 35.454C112.277 34.926 111.918 34.5153 111.463 34.222C111.009 33.9286 110.503 33.782 109.945 33.782C109.373 33.782 108.86 33.936 108.405 34.244C107.951 34.5373 107.591 34.948 107.327 35.476C107.063 35.9893 106.931 36.5833 106.931 37.258Z" fill="white"/>
<path d="M117.853 38.688V31.472H120.801V38.05C120.801 38.93 120.962 39.5973 121.285 40.052C121.608 40.492 122.084 40.712 122.715 40.712C123.096 40.712 123.47 40.6386 123.837 40.492C124.218 40.3306 124.563 40.096 124.871 39.788C125.194 39.48 125.465 39.0913 125.685 38.622V31.472H128.633V39.7C128.633 40.008 128.684 40.228 128.787 40.36C128.904 40.492 129.088 40.5726 129.337 40.602V43C129.044 43.044 128.794 43.0733 128.589 43.088C128.398 43.1173 128.222 43.132 128.061 43.132C127.533 43.132 127.1 43.0146 126.763 42.78C126.44 42.5306 126.25 42.1933 126.191 41.768L126.125 40.844C125.612 41.6213 124.952 42.2153 124.145 42.626C123.338 43.022 122.451 43.22 121.483 43.22C120.295 43.22 119.393 42.8386 118.777 42.076C118.161 41.2986 117.853 40.1693 117.853 38.688Z" fill="white"/>
<path d="M138.427 34.024C137.532 34.024 136.733 34.2 136.029 34.552C135.325 34.8893 134.819 35.3806 134.511 36.026V43H131.563V31.472H134.269V33.936C134.679 33.144 135.2 32.5206 135.831 32.066C136.461 31.6113 137.129 31.362 137.833 31.318C137.994 31.318 138.119 31.318 138.207 31.318C138.295 31.318 138.368 31.3253 138.427 31.34V34.024Z" fill="white"/>
<path d="M145.147 43V27.38H152.055C152.774 27.38 153.434 27.5266 154.035 27.82C154.651 28.1133 155.179 28.5093 155.619 29.008C156.074 29.5066 156.419 30.064 156.653 30.68C156.903 31.296 157.027 31.9266 157.027 32.572C157.027 33.232 156.91 33.87 156.675 34.486C156.455 35.0873 156.133 35.6153 155.707 36.07C155.282 36.5246 154.783 36.8766 154.211 37.126L157.775 43H154.431L151.219 37.764H148.183V43H145.147ZM148.183 35.102H151.989C152.371 35.102 152.708 34.992 153.001 34.772C153.295 34.5373 153.529 34.2293 153.705 33.848C153.881 33.4666 153.969 33.0413 153.969 32.572C153.969 32.0733 153.867 31.6406 153.661 31.274C153.456 30.8926 153.192 30.592 152.869 30.372C152.561 30.152 152.224 30.042 151.857 30.042H148.183V35.102Z" fill="white"/>
<path d="M164.43 43.22C163.491 43.22 162.648 43.066 161.9 42.758C161.152 42.4353 160.514 41.9953 159.986 41.438C159.472 40.8806 159.076 40.2426 158.798 39.524C158.519 38.8053 158.38 38.05 158.38 37.258C158.38 36.4513 158.519 35.6886 158.798 34.97C159.076 34.2513 159.472 33.6133 159.986 33.056C160.514 32.4986 161.152 32.066 161.9 31.758C162.648 31.4353 163.491 31.274 164.43 31.274C165.368 31.274 166.204 31.4353 166.938 31.758C167.686 32.066 168.324 32.4986 168.852 33.056C169.38 33.6133 169.776 34.2513 170.04 34.97C170.318 35.6886 170.458 36.4513 170.458 37.258C170.458 38.05 170.318 38.8053 170.04 39.524C169.776 40.2426 169.38 40.8806 168.852 41.438C168.338 41.9953 167.708 42.4353 166.96 42.758C166.212 43.066 165.368 43.22 164.43 43.22ZM161.416 37.258C161.416 37.9326 161.548 38.534 161.812 39.062C162.076 39.5753 162.435 39.9786 162.89 40.272C163.344 40.5653 163.858 40.712 164.43 40.712C164.987 40.712 165.493 40.5653 165.948 40.272C166.402 39.964 166.762 39.5533 167.026 39.04C167.304 38.512 167.444 37.9106 167.444 37.236C167.444 36.576 167.304 35.982 167.026 35.454C166.762 34.926 166.402 34.5153 165.948 34.222C165.493 33.9286 164.987 33.782 164.43 33.782C163.858 33.782 163.344 33.936 162.89 34.244C162.435 34.5373 162.076 34.948 161.812 35.476C161.548 35.9893 161.416 36.5833 161.416 37.258Z" fill="white"/>
<path d="M179.003 43.22C178.123 43.22 177.339 43.022 176.649 42.626C175.96 42.23 175.417 41.6873 175.021 40.998V43H172.447V26.94H175.395V33.496C175.806 32.8066 176.341 32.264 177.001 31.868C177.676 31.472 178.461 31.274 179.355 31.274C180.103 31.274 180.785 31.4353 181.401 31.758C182.017 32.066 182.545 32.4986 182.985 33.056C183.44 33.6133 183.785 34.2513 184.019 34.97C184.269 35.6886 184.393 36.4586 184.393 37.28C184.393 38.1013 184.254 38.8713 183.975 39.59C183.711 40.3086 183.337 40.9466 182.853 41.504C182.369 42.0466 181.797 42.472 181.137 42.78C180.492 43.0733 179.781 43.22 179.003 43.22ZM178.189 40.712C178.659 40.712 179.084 40.624 179.465 40.448C179.861 40.2573 180.199 40.008 180.477 39.7C180.771 39.392 180.991 39.0326 181.137 38.622C181.299 38.1966 181.379 37.7566 181.379 37.302C181.379 36.6713 181.247 36.092 180.983 35.564C180.734 35.0213 180.382 34.5886 179.927 34.266C179.487 33.9433 178.967 33.782 178.365 33.782C177.94 33.782 177.529 33.8846 177.133 34.09C176.752 34.2806 176.407 34.5446 176.099 34.882C175.806 35.2193 175.571 35.6006 175.395 36.026V38.776C175.483 39.0693 175.623 39.3333 175.813 39.568C176.019 39.8026 176.253 40.008 176.517 40.184C176.781 40.3453 177.053 40.4773 177.331 40.58C177.625 40.668 177.911 40.712 178.189 40.712Z" fill="white"/>
<path d="M186.369 26.94H189.317V39.304C189.317 39.832 189.405 40.1913 189.581 40.382C189.757 40.558 189.999 40.646 190.307 40.646C190.541 40.646 190.783 40.6166 191.033 40.558C191.282 40.4993 191.502 40.426 191.693 40.338L192.089 42.582C191.693 42.7726 191.231 42.9193 190.703 43.022C190.175 43.1246 189.698 43.176 189.273 43.176C188.349 43.176 187.63 42.934 187.117 42.45C186.618 41.9513 186.369 41.2473 186.369 40.338V26.94Z" fill="white"/>
<path d="M198.697 43.22C197.759 43.22 196.915 43.066 196.167 42.758C195.419 42.4353 194.781 41.9953 194.253 41.438C193.74 40.8806 193.344 40.2426 193.065 39.524C192.787 38.8053 192.647 38.05 192.647 37.258C192.647 36.4513 192.787 35.6886 193.065 34.97C193.344 34.2513 193.74 33.6133 194.253 33.056C194.781 32.4986 195.419 32.066 196.167 31.758C196.915 31.4353 197.759 31.274 198.697 31.274C199.636 31.274 200.472 31.4353 201.205 31.758C201.953 32.066 202.591 32.4986 203.119 33.056C203.647 33.6133 204.043 34.2513 204.307 34.97C204.586 35.6886 204.725 36.4513 204.725 37.258C204.725 38.05 204.586 38.8053 204.307 39.524C204.043 40.2426 203.647 40.8806 203.119 41.438C202.606 41.9953 201.975 42.4353 201.227 42.758C200.479 43.066 199.636 43.22 198.697 43.22ZM195.683 37.258C195.683 37.9326 195.815 38.534 196.079 39.062C196.343 39.5753 196.703 39.9786 197.157 40.272C197.612 40.5653 198.125 40.712 198.697 40.712C199.255 40.712 199.761 40.5653 200.215 40.272C200.67 39.964 201.029 39.5533 201.293 39.04C201.572 38.512 201.711 37.9106 201.711 37.236C201.711 36.576 201.572 35.982 201.293 35.454C201.029 34.926 200.67 34.5153 200.215 34.222C199.761 33.9286 199.255 33.782 198.697 33.782C198.125 33.782 197.612 33.936 197.157 34.244C196.703 34.5373 196.343 34.948 196.079 35.476C195.815 35.9893 195.683 36.5833 195.683 37.258Z" fill="white"/>
<path d="M208.07 31.472L210.49 35.08L210.666 35.476L210.886 35.08L213.284 31.472H216.386L212.382 37.214L216.452 43H213.35L210.864 39.414L210.666 39.04L210.49 39.414L208.026 43H204.924L208.994 37.28L204.99 31.472H208.07Z" fill="white"/>
<path d="M31.8739 53.38H34.9539L40.6959 69H37.5719L36.1199 65.106H30.6639L29.2339 69H26.1099L31.8739 53.38ZM35.5699 62.972L33.4139 56.526L31.1699 62.972H35.5699Z" fill="white"/>
<path d="M47.1474 69.22C46.2088 69.22 45.3654 69.066 44.6174 68.758C43.8694 68.4353 43.2314 67.9953 42.7034 67.438C42.1754 66.866 41.7648 66.2206 41.4714 65.502C41.1928 64.7833 41.0534 64.028 41.0534 63.236C41.0534 62.1506 41.2954 61.1606 41.7794 60.266C42.2781 59.3566 42.9821 58.6306 43.8914 58.088C44.8008 57.5453 45.8788 57.274 47.1254 57.274C48.3721 57.274 49.4428 57.5453 50.3374 58.088C51.2321 58.6306 51.8994 59.342 52.3394 60.222L49.4574 61.102C49.2081 60.6766 48.8781 60.354 48.4674 60.134C48.0568 59.8993 47.6021 59.782 47.1034 59.782C46.5461 59.782 46.0328 59.9286 45.5634 60.222C45.1088 60.5006 44.7494 60.904 44.4854 61.432C44.2214 61.9453 44.0894 62.5466 44.0894 63.236C44.0894 63.9106 44.2214 64.512 44.4854 65.04C44.7641 65.5533 45.1308 65.964 45.5854 66.272C46.0401 66.5653 46.5461 66.712 47.1034 66.712C47.4554 66.712 47.7854 66.6533 48.0934 66.536C48.4161 66.4186 48.7021 66.2573 48.9514 66.052C49.2008 65.8466 49.3841 65.612 49.5014 65.348L52.3834 66.228C52.1194 66.8 51.7308 67.3133 51.2174 67.768C50.7188 68.2226 50.1248 68.582 49.4354 68.846C48.7608 69.0953 47.9981 69.22 47.1474 69.22Z" fill="white"/>
<path d="M59.458 69.22C58.5193 69.22 57.676 69.066 56.928 68.758C56.18 68.4353 55.542 67.9953 55.014 67.438C54.486 66.866 54.0753 66.2206 53.782 65.502C53.5033 64.7833 53.364 64.028 53.364 63.236C53.364 62.1506 53.606 61.1606 54.09 60.266C54.5887 59.3566 55.2927 58.6306 56.202 58.088C57.1113 57.5453 58.1893 57.274 59.436 57.274C60.6827 57.274 61.7533 57.5453 62.648 58.088C63.5427 58.6306 64.21 59.342 64.65 60.222L61.768 61.102C61.5187 60.6766 61.1887 60.354 60.778 60.134C60.3673 59.8993 59.9127 59.782 59.414 59.782C58.8567 59.782 58.3433 59.9286 57.874 60.222C57.4193 60.5006 57.06 60.904 56.796 61.432C56.532 61.9453 56.4 62.5466 56.4 63.236C56.4 63.9106 56.532 64.512 56.796 65.04C57.0747 65.5533 57.4413 65.964 57.896 66.272C58.3507 66.5653 58.8567 66.712 59.414 66.712C59.766 66.712 60.096 66.6533 60.404 66.536C60.7267 66.4186 61.0127 66.2573 61.262 66.052C61.5113 65.8466 61.6947 65.612 61.812 65.348L64.694 66.228C64.43 66.8 64.0413 67.3133 63.528 67.768C63.0293 68.2226 62.4353 68.582 61.746 68.846C61.0713 69.0953 60.3087 69.22 59.458 69.22Z" fill="white"/>
<path d="M71.7245 69.22C70.7859 69.22 69.9425 69.066 69.1945 68.758C68.4465 68.4353 67.8085 67.9953 67.2805 67.438C66.7672 66.8806 66.3712 66.2426 66.0925 65.524C65.8139 64.8053 65.6745 64.05 65.6745 63.258C65.6745 62.4513 65.8139 61.6886 66.0925 60.97C66.3712 60.2513 66.7672 59.6133 67.2805 59.056C67.8085 58.4986 68.4465 58.066 69.1945 57.758C69.9425 57.4353 70.7859 57.274 71.7245 57.274C72.6632 57.274 73.4992 57.4353 74.2325 57.758C74.9805 58.066 75.6185 58.4986 76.1465 59.056C76.6745 59.6133 77.0705 60.2513 77.3345 60.97C77.6132 61.6886 77.7525 62.4513 77.7525 63.258C77.7525 64.05 77.6132 64.8053 77.3345 65.524C77.0705 66.2426 76.6745 66.8806 76.1465 67.438C75.6332 67.9953 75.0025 68.4353 74.2545 68.758C73.5065 69.066 72.6632 69.22 71.7245 69.22ZM68.7105 63.258C68.7105 63.9326 68.8425 64.534 69.1065 65.062C69.3705 65.5753 69.7299 65.9786 70.1845 66.272C70.6392 66.5653 71.1525 66.712 71.7245 66.712C72.2819 66.712 72.7879 66.5653 73.2425 66.272C73.6972 65.964 74.0565 65.5533 74.3205 65.04C74.5992 64.512 74.7385 63.9106 74.7385 63.236C74.7385 62.576 74.5992 61.982 74.3205 61.454C74.0565 60.926 73.6972 60.5153 73.2425 60.222C72.7879 59.9286 72.2819 59.782 71.7245 59.782C71.1525 59.782 70.6392 59.936 70.1845 60.244C69.7299 60.5373 69.3705 60.948 69.1065 61.476C68.8425 61.9893 68.7105 62.5833 68.7105 63.258Z" fill="white"/>
<path d="M79.6323 64.688V57.472H82.5803V64.05C82.5803 64.93 82.7417 65.5973 83.0643 66.052C83.387 66.492 83.8637 66.712 84.4943 66.712C84.8757 66.712 85.2497 66.6386 85.6163 66.492C85.9977 66.3306 86.3423 66.096 86.6503 65.788C86.973 65.48 87.2443 65.0913 87.4643 64.622V57.472H90.4123V65.7C90.4123 66.008 90.4637 66.228 90.5663 66.36C90.6837 66.492 90.867 66.5726 91.1163 66.602V69C90.823 69.044 90.5737 69.0733 90.3683 69.088C90.1777 69.1173 90.0017 69.132 89.8403 69.132C89.3123 69.132 88.8797 69.0146 88.5423 68.78C88.2197 68.5306 88.029 68.1933 87.9703 67.768L87.9043 66.844C87.391 67.6213 86.731 68.2153 85.9243 68.626C85.1177 69.022 84.2303 69.22 83.2623 69.22C82.0743 69.22 81.1723 68.8386 80.5563 68.076C79.9403 67.2986 79.6323 66.1693 79.6323 64.688Z" fill="white"/>
<path d="M104.056 69H101.108V62.532C101.108 61.608 100.947 60.9333 100.624 60.508C100.301 60.0826 99.8539 59.87 99.2819 59.87C98.8859 59.87 98.4826 59.9726 98.0719 60.178C97.6759 60.3833 97.3166 60.6693 96.9939 61.036C96.6713 61.388 96.4366 61.7986 96.2899 62.268V69H93.3419V57.472H96.0039V59.606C96.2973 59.1073 96.6713 58.6893 97.1259 58.352C97.5806 58 98.1013 57.736 98.6879 57.56C99.2893 57.3693 99.9199 57.274 100.58 57.274C101.299 57.274 101.885 57.406 102.34 57.67C102.809 57.9193 103.161 58.264 103.396 58.704C103.645 59.1293 103.814 59.6133 103.902 60.156C104.005 60.6986 104.056 61.2486 104.056 61.806V69Z" fill="white"/>
<path d="M113.463 68.406C113.214 68.5086 112.913 68.626 112.561 68.758C112.209 68.89 111.828 68.9926 111.417 69.066C111.021 69.154 110.617 69.198 110.207 69.198C109.664 69.198 109.166 69.1026 108.711 68.912C108.256 68.7213 107.89 68.4206 107.611 68.01C107.347 67.5846 107.215 67.0346 107.215 66.36V59.738H105.697V57.472H107.215V53.732H110.163V57.472H112.583V59.738H110.163V65.37C110.178 65.766 110.288 66.052 110.493 66.228C110.698 66.404 110.955 66.492 111.263 66.492C111.571 66.492 111.871 66.4406 112.165 66.338C112.458 66.2353 112.693 66.1473 112.869 66.074L113.463 68.406Z" fill="white"/>
<path d="M120.569 69V53.38H123.605V69H120.569Z" fill="white"/>
<path d="M137.292 69H134.344V62.532C134.344 61.608 134.183 60.9333 133.86 60.508C133.538 60.0826 133.09 59.87 132.518 59.87C132.122 59.87 131.719 59.9726 131.308 60.178C130.912 60.3833 130.553 60.6693 130.23 61.036C129.908 61.388 129.673 61.7986 129.526 62.268V69H126.578V57.472H129.24V59.606C129.534 59.1073 129.908 58.6893 130.362 58.352C130.817 58 131.338 57.736 131.924 57.56C132.526 57.3693 133.156 57.274 133.816 57.274C134.535 57.274 135.122 57.406 135.576 57.67C136.046 57.9193 136.398 58.264 136.632 58.704C136.882 59.1293 137.05 59.6133 137.138 60.156C137.241 60.6986 137.292 61.2486 137.292 61.806V69Z" fill="white"/>
<path d="M139.79 64.292V61.63H146.456V64.292H139.79Z" fill="white"/>
<path d="M155.827 69.11C154.815 69.11 153.854 68.9046 152.945 68.494C152.05 68.0833 151.258 67.5186 150.569 66.8C149.894 66.0666 149.366 65.216 148.985 64.248C148.604 63.28 148.413 62.2313 148.413 61.102C148.413 60.0313 148.604 59.0266 148.985 58.088C149.366 57.1346 149.902 56.2986 150.591 55.58C151.28 54.8613 152.087 54.2966 153.011 53.886C153.935 53.4753 154.94 53.27 156.025 53.27C157.492 53.27 158.746 53.5853 159.787 54.216C160.843 54.832 161.635 55.6533 162.163 56.68L159.897 58.352C159.501 57.5746 158.944 56.9806 158.225 56.57C157.521 56.1593 156.751 55.954 155.915 55.954C155.255 55.954 154.654 56.0933 154.111 56.372C153.568 56.6506 153.099 57.032 152.703 57.516C152.307 58 151.999 58.5573 151.779 59.188C151.574 59.8186 151.471 60.486 151.471 61.19C151.471 61.938 151.581 62.6273 151.801 63.258C152.036 63.8886 152.358 64.4386 152.769 64.908C153.194 65.3773 153.686 65.7513 154.243 66.03C154.8 66.294 155.416 66.426 156.091 66.426C156.883 66.426 157.638 66.2206 158.357 65.81C159.09 65.3993 159.772 64.798 160.403 64.006V66.998C159.098 68.406 157.572 69.11 155.827 69.11ZM160.183 63.192H157.037V60.97H162.691V69H160.183V63.192Z" fill="white"/>
<path d="M164.2 65.59C164.2 64.842 164.406 64.1893 164.816 63.632C165.242 63.06 165.828 62.62 166.576 62.312C167.324 62.004 168.182 61.85 169.15 61.85C169.634 61.85 170.126 61.8866 170.624 61.96C171.123 62.0333 171.556 62.1506 171.922 62.312V61.696C171.922 60.9626 171.702 60.398 171.262 60.002C170.837 59.606 170.199 59.408 169.348 59.408C168.718 59.408 168.116 59.518 167.544 59.738C166.972 59.958 166.371 60.2806 165.74 60.706L164.794 58.77C165.557 58.2713 166.334 57.8973 167.126 57.648C167.933 57.3986 168.776 57.274 169.656 57.274C171.299 57.274 172.575 57.6846 173.484 58.506C174.408 59.3273 174.87 60.5006 174.87 62.026V65.7C174.87 66.008 174.922 66.228 175.024 66.36C175.142 66.492 175.325 66.5726 175.574 66.602V69C175.31 69.044 175.068 69.0806 174.848 69.11C174.643 69.1393 174.467 69.154 174.32 69.154C173.734 69.154 173.286 69.022 172.978 68.758C172.685 68.494 172.502 68.1713 172.428 67.79L172.362 67.196C171.864 67.8413 171.24 68.34 170.492 68.692C169.744 69.044 168.982 69.22 168.204 69.22C167.442 69.22 166.752 69.066 166.136 68.758C165.535 68.4353 165.058 68.0026 164.706 67.46C164.369 66.9026 164.2 66.2793 164.2 65.59ZM171.372 66.184C171.534 66.008 171.666 65.832 171.768 65.656C171.871 65.48 171.922 65.3186 171.922 65.172V64.006C171.57 63.8593 171.189 63.7493 170.778 63.676C170.368 63.588 169.979 63.544 169.612 63.544C168.85 63.544 168.219 63.7126 167.72 64.05C167.236 64.3726 166.994 64.8053 166.994 65.348C166.994 65.6413 167.075 65.92 167.236 66.184C167.398 66.448 167.632 66.6606 167.94 66.822C168.248 66.9833 168.615 67.064 169.04 67.064C169.48 67.064 169.913 66.9833 170.338 66.822C170.764 66.646 171.108 66.4333 171.372 66.184Z" fill="white"/>
<path d="M195.533 69H192.585V62.532C192.585 61.6226 192.424 60.9553 192.101 60.53C191.793 60.09 191.36 59.87 190.803 59.87C190.231 59.87 189.681 60.0973 189.153 60.552C188.64 60.992 188.273 61.5713 188.053 62.29V69H185.105V62.532C185.105 61.608 184.944 60.9333 184.621 60.508C184.313 60.0826 183.88 59.87 183.323 59.87C182.751 59.87 182.201 60.09 181.673 60.53C181.16 60.97 180.793 61.5493 180.573 62.268V69H177.625V57.472H180.287V59.606C180.727 58.858 181.314 58.286 182.047 57.89C182.78 57.4793 183.624 57.274 184.577 57.274C185.53 57.274 186.271 57.5086 186.799 57.978C187.342 58.4473 187.686 59.0266 187.833 59.716C188.302 58.924 188.896 58.3226 189.615 57.912C190.348 57.4866 191.17 57.274 192.079 57.274C192.798 57.274 193.377 57.406 193.817 57.67C194.272 57.9193 194.624 58.264 194.873 58.704C195.122 59.1293 195.291 59.6133 195.379 60.156C195.482 60.6986 195.533 61.2486 195.533 61.806V69Z" fill="white"/>
<path d="M203.446 69.22C202.522 69.22 201.686 69.066 200.938 68.758C200.19 68.4353 199.552 68.0026 199.024 67.46C198.496 66.9026 198.085 66.272 197.792 65.568C197.513 64.8493 197.374 64.094 197.374 63.302C197.374 62.202 197.616 61.1973 198.1 60.288C198.598 59.3786 199.302 58.6526 200.212 58.11C201.136 57.5526 202.221 57.274 203.468 57.274C204.729 57.274 205.807 57.5526 206.702 58.11C207.596 58.6526 208.278 59.3786 208.748 60.288C209.232 61.1826 209.474 62.1506 209.474 63.192C209.474 63.368 209.466 63.5513 209.452 63.742C209.437 63.918 209.422 64.0646 209.408 64.182H200.498C200.556 64.7686 200.725 65.282 201.004 65.722C201.297 66.162 201.664 66.4993 202.104 66.734C202.558 66.954 203.042 67.064 203.556 67.064C204.142 67.064 204.692 66.9246 205.206 66.646C205.734 66.3526 206.093 65.9713 206.284 65.502L208.814 66.206C208.535 66.7926 208.132 67.3133 207.604 67.768C207.09 68.2226 206.482 68.582 205.778 68.846C205.074 69.0953 204.296 69.22 203.446 69.22ZM200.432 62.312H206.46C206.401 61.7253 206.232 61.2193 205.954 60.794C205.69 60.354 205.338 60.0166 204.898 59.782C204.458 59.5326 203.966 59.408 203.424 59.408C202.896 59.408 202.412 59.5326 201.972 59.782C201.546 60.0166 201.194 60.354 200.916 60.794C200.652 61.2193 200.49 61.7253 200.432 62.312Z" fill="white"/>
<path d="M263.5 67V34L295 50.5L263.5 67Z" fill="white"/>
</g>
<defs>
<radialGradient id="paint0_radial_214_48" cx="0" cy="0" r="1" gradientUnits="userSpaceOnUse" gradientTransform="translate(282.514 65.3958) rotate(-90) scale(41.4423 223.325)">
<stop stop-color="white" stop-opacity="0"/>
<stop offset="1" stop-color="white" stop-opacity="0.04"/>
</radialGradient>
<radialGradient id="paint1_radial_214_48" cx="0" cy="0" r="1" gradientUnits="userSpaceOnUse" gradientTransform="translate(152.628 50.023) scale(279.93 882.592)">
<stop stop-color="white" stop-opacity="0"/>
<stop offset="1" stop-color="white" stop-opacity="0.04"/>
</radialGradient>
<clipPath id="clip0_214_48">
<rect width="336" height="100" fill="white"/>
</clipPath>
</defs>
</svg>
